<?xml version="1.0" encoding="UTF-8"?>
<!DOCTYPE svg PUBLIC "-//W3C//DTD SVG 1.1//EN" "http://www.w3.org/Graphics/SVG/1.1/DTD/svg11.dtd">
<!-- Creator: CorelDRAW -->
<svg xmlns="http://www.w3.org/2000/svg" xml:space="preserve" width="162mm" height="50mm" style="shape-rendering:geometricPrecision; text-rendering:geometricPrecision; image-rendering:optimizeQuality; fill-rule:evenodd; clip-rule:evenodd"
viewBox="0 0 162 50"
 xmlns:xlink="http://www.w3.org/1999/xlink">
 <defs>
  <style type="text/css">
   <![CDATA[
    .fil2 {fill:#0092DD}
    .fil3 {fill:#85C226}
    .fil0 {fill:#DA251C}
    .fil1 {fill:#F8C301}
    .fil4 {fill:#3C3C3C;fill-rule:nonzero}
   ]]>
  </style>
 </defs>
 <g id="Layer_x0020_1">
  <metadata id="CorelCorpID_0Corel-Layer"/>
  <g id="_181970448">
   <g>
    <path id="_181972752" class="fil0" d="M28.7733 44.9926c0.2373,-2.4582 -1.5052,-4.3207 -3.6197,-4.5618 -1.259,-0.1435 -2.5349,0.2742 -3.4095,1.1664 -1.777,1.8131 -1.5426,4.6281 0.266,6.1045 0.6085,0.4968 1.2918,0.8461 2.1617,0.9358 2.4299,0.2505 4.3952,-1.5068 4.6015,-3.6449z"/>
    <path id="_181972632" class="fil0" d="M20.9764 28.0953c0.4052,0.4857 5.2637,5.2775 5.8644,5.8794 0.9916,0.9936 1.9467,1.9431 2.9335,2.9336 0.195,0.1958 0.5479,0.4125 0.4358,0.9108 -0.0836,0.3713 -1.8402,1.9747 -2.1572,2.2881 0.1074,0.2158 0.6086,0.4926 0.9403,0.9833 0.4387,0.6489 0.3725,0.5488 0.7192,1.2649 0.2563,-0.0592 0.2091,-0.0975 0.5365,-0.4201 0.1692,-0.1667 0.3003,-0.3017 0.4681,-0.4708 0.9518,-0.9591 2.0904,-1.8343 2.2916,-3.2551 0.086,-0.6074 0.0275,-1.1023 -0.1424,-1.6497 -0.3566,-1.1479 -1.5665,-2.0976 -2.5158,-3.0439 -2.4726,-2.4644 -4.9443,-4.9907 -7.4355,-7.4066 -0.2066,0.2872 -1.8382,1.7816 -1.9385,1.9861z"/>
    <path id="_181972512" class="fil1" d="M4.6883 20.9053c-2.3115,0.275 -3.9242,2.2468 -3.66,4.601 0.4142,3.6925 5.213,4.8082 7.2729,2.1319 0.5553,-0.7215 1.1373,-1.8365 0.9324,-3.1311 -0.3726,-2.3542 -2.3235,-3.8662 -4.5453,-3.6018z"/>
    <path id="_181972392" class="fil2" d="M24.0461 1.3955c-2.3763,0.4145 -3.8191,2.4634 -3.4608,4.7334 0.3193,2.0239 2.2492,3.7959 4.7325,3.4134 2.0251,-0.312 3.8205,-2.2638 3.4212,-4.701 -0.2718,-1.659 -1.4282,-2.8886 -2.882,-3.328 -0.5669,-0.1714 -1.1764,-0.2285 -1.8109,-0.1178z"/>
    <path id="_181972272" class="fil3" d="M43.7403 20.9037c-2.362,0.3186 -3.9185,2.312 -3.6469,4.5837 0.2474,2.0695 2.1615,3.9159 4.5911,3.6092 2.078,-0.2622 3.9284,-2.1568 3.6074,-4.5907 -0.2925,-2.2186 -2.2991,-3.9061 -4.5516,-3.6022z"/>
    <path id="_181972152" class="fil3" d="M25.7852 26.7342c0.1095,0.2361 1.6205,1.6704 1.9225,1.9695 0.3114,-0.2038 2.6312,-2.5914 2.9603,-2.9184l5.8904 -5.8903c0.9218,-0.9242 1.0996,-0.4372 2.4831,0.9634l0.7449 0.7521c0.187,-0.1273 0.312,-0.3423 0.474,-0.5017 0.1584,-0.1558 0.336,-0.3251 0.5259,-0.4595 0.192,-0.1359 0.3724,-0.2644 0.5826,-0.4035 0.0947,-0.0627 0.1782,-0.1078 0.3008,-0.1679 0.1804,-0.0883 0.1756,-0.0668 0.3377,-0.1966 -0.1479,-0.2179 -1.515,-1.5388 -1.8251,-1.8536 -0.5567,-0.5652 -1.1772,-1.193 -2.3314,-1.3677 -2.144,-0.3246 -3.2667,1.2418 -4.6834,2.6598l-5.5368 5.5399c-0.321,0.3176 -0.5985,0.597 -0.916,0.9154 -0.23,0.2307 -0.7821,0.7262 -0.9295,0.9591z"/>
    <path id="_181972032" class="fil1" d="M9.5096 28.4016c-1.0329,1.1044 -0.8851,0.9001 -2.1965,1.6752 0.0688,0.1756 0.711,0.7573 0.8815,0.9289 1.0261,1.0324 1.8313,2.1018 3.2283,2.3167 1.1639,0.179 2.2373,-0.2269 2.8535,-0.7891 0.6579,-0.6003 1.234,-1.2261 1.8625,-1.8451 1.255,-1.2361 2.445,-2.4786 3.7075,-3.7085 1.209,-1.1777 2.5002,-2.4995 3.6905,-3.7189l-1.9632 -1.9591c-0.2034,0.1598 -1.1883,1.1724 -1.4576,1.4415l-4.436 4.4355c-0.9803,0.9891 -1.9708,1.9235 -2.9307,2.9362 -0.9302,0.9813 -1.2267,0.2788 -2.4923,-0.9832 -0.1416,-0.1412 -0.629,-0.6504 -0.7475,-0.7301z"/>
    <path id="_181971912" class="fil2" d="M26.4068 23.8765l1.9596 -1.9755c-0.5235,-0.447 -5.3161,-5.3023 -5.8891,-5.882 -0.9809,-0.9926 -1.9574,-1.9372 -2.9344,-2.9328 -0.7988,-0.8142 -0.5124,-0.9927 0.2658,-1.7742l1.462 -1.4637c-1.0503,-1.0069 -1.0548,-0.9641 -1.7167,-2.2063 -0.2754,0.2303 -1.4896,1.4798 -1.8544,1.8424 -0.3727,0.3706 -0.588,0.5458 -0.8625,0.9682 -0.8701,1.3389 -0.6756,3.0524 0.2903,4.1572 0.5674,0.6489 1.2262,1.2521 1.8398,1.8686 0.3744,0.3764 7.2007,7.2722 7.4396,7.3981z"/>
    <path id="_181971792" class="fil0" d="M21.2695 40.128c-0.6021,-0.55 -1.171,-1.1627 -1.7667,-1.7498 -0.2659,-0.2621 -0.6575,-0.6819 -0.2273,-1.1744 0.2498,-0.2858 0.6013,-0.6099 0.8678,-0.8687 0.223,-0.2166 3.3961,-3.3428 3.5092,-3.5461 -0.3473,-0.3885 -1.4126,-1.5181 -1.7841,-1.843 -0.0976,-0.0853 -0.0398,-0.0443 -0.1553,-0.1174 -0.9768,0.8751 -1.6575,1.5847 -2.5931,2.5133 -0.6631,0.6582 -2.0288,1.928 -2.4167,2.6516 -0.6989,1.3035 -0.5263,2.6875 0.3436,3.8552 0.1481,0.1988 2.3098,2.3623 2.5071,2.5088l0.3814 -0.6482c0.7104,-1.182 1.1378,-1.2458 1.3341,-1.5813z"/>
    <path id="_181971672" class="fil3" d="M30.4852 27.9293c0.1143,0.283 3.3675,3.4356 3.7363,3.8042 0.402,0.4017 0.7975,0.8598 1.3584,1.175 1.2693,0.7134 2.8591,0.5688 3.8722,-0.2628 0.6471,-0.5311 1.9115,-1.8719 2.553,-2.5321 -0.0817,-0.076 -0.1886,-0.1233 -0.3044,-0.1803 -0.1104,-0.0543 -0.1981,-0.1036 -0.3041,-0.1653 -0.6955,-0.4048 -0.9706,-0.7746 -1.5738,-1.3769 -0.2441,0.1796 -1.4283,1.411 -1.7616,1.7364 -0.8776,0.8571 -1.0505,0.445 -2.0671,-0.5894 -0.5901,-0.6005 -1.1635,-1.16 -1.7614,-1.7588 -0.716,-0.7169 -1.0719,-1.1164 -1.8372,-1.7622l-1.9103 1.9122z"/>
    <path id="_181971528" class="fil2" d="M28.0516 9.8274c0.1042,0.1851 1.4818,1.5228 1.7442,1.7834 0.2317,0.2302 0.7092,0.657 0.289,1.1529 -0.2727,0.322 -2.2456,2.245 -2.6519,2.652l-1.772 1.7987 1.9663 1.9541c0.1687,-0.1097 0.4518,-0.4274 0.6182,-0.5931 0.2223,-0.2217 0.4113,-0.4127 0.6336,-0.6343 0.4342,-0.433 0.8319,-0.8321 1.2677,-1.2663 0.592,-0.5898 2.0767,-1.9772 2.4478,-2.6208 0.7413,-1.2857 0.4953,-2.8689 -0.2953,-3.8668 -0.3617,-0.4566 -1.9809,-2.0271 -2.5071,-2.5518 -0.1277,0.1072 -0.412,0.7742 -0.7565,1.2162 -0.2785,0.3574 -0.6605,0.722 -0.984,0.9758z"/>
    <path id="_181971456" class="fil1" d="M7.3131 19.9204c0.2171,0.1147 0.4013,0.1827 0.6211,0.3159 0.7242,0.4386 0.9533,0.7517 1.5754,1.3582 0.1813,-0.1184 1.4868,-1.4672 1.7606,-1.7363 0.2898,-0.2848 0.6377,-0.6767 1.1693,-0.2819l4.4391 4.4107 1.9556 -1.9465c-0.1463,-0.2395 -3.2502,-3.2641 -3.7534,-3.7873 -0.4063,-0.4224 -0.799,-0.8577 -1.3601,-1.1759 -1.2407,-0.7033 -2.9063,-0.5263 -3.8988,0.3021 -0.2705,0.2258 -2.4344,2.3558 -2.5088,2.541z"/>
   </g>
   <g>
    <path id="_181971264" class="fil4" d="M61.9587 35.3919l-2.3001 0 0 -17.7403 -6.2629 0 0 -2.0414 14.8305 0 0 2.0414 -6.2675 0 0 17.7403zm19.052 0l0 -9.593c0,-1.2101 -0.2771,-2.1107 -0.8267,-2.7065 -0.5496,-0.5958 -1.4087,-0.8914 -2.5818,-0.8914 -1.5611,0 -2.702,0.4203 -3.4178,1.2701 -0.7159,0.8499 -1.0762,2.2355 -1.0762,4.1661l0 7.7547 -2.2447 0 0 -21.0565 2.2447 0 0 6.3738c0,0.7667 -0.0369,1.404 -0.1062,1.9075l0.1339 0c0.4434,-0.7113 1.0715,-1.2748 1.8891,-1.6812 0.8128,-0.4111 1.7458,-0.6189 2.7896,-0.6189 1.8152,0 3.1777,0.4341 4.0829,1.2932 0.9053,0.8637 1.3579,2.2308 1.3579,4.106l0 9.6761 -2.2447 0zm13.1262 0.2725c-2.1938,0 -3.9212,-0.6697 -5.1867,-2.0045 -1.2702,-1.3348 -1.9029,-3.1869 -1.9029,-5.5609 0,-2.3924 0.5866,-4.2907 1.7643,-5.6994 1.1778,-1.4041 2.7574,-2.1107 4.7434,-2.1107 1.8567,0 3.3301,0.6142 4.4108,1.8336 1.0854,1.2239 1.6258,2.8358 1.6258,4.8403l0 1.418 -10.2165 0c0.0462,1.7412 0.485,3.0621 1.3163,3.9674 0.836,0.9006 2.0138,1.3533 3.5287,1.3533 1.5934,0 3.173,-0.3326 4.7341,-1.0023l0 2.0045c-0.7944,0.3418 -1.5426,0.5866 -2.2539,0.7344 -0.7067,0.1478 -1.5611,0.2263 -2.5634,0.2263zm-0.6096 -13.4911c-1.1916,0 -2.1385,0.3879 -2.8451,1.1639 -0.7113,0.7759 -1.127,1.8474 -1.2517,3.2192l7.7501 0c0,-1.4179 -0.314,-2.5033 -0.9468,-3.2562 -0.6327,-0.7528 -1.5334,-1.1269 -2.7065,-1.1269z"/>
    <path id="_181970280" class="fil4" d="M103.978 35.6644l0 -19.7817 4.1937 0 0 16.3177 8.0273 0 0 3.464 -12.221 0zm15.1584 -19.0381c0,-1.3441 0.7483,-2.0184 2.2447,-2.0184 1.4965,0 2.2447,0.6743 2.2447,2.0184 0,0.642 -0.1848,1.1408 -0.5589,1.4964 -0.3741,0.3556 -0.9376,0.5312 -1.6858,0.5312 -1.4964,0 -2.2447,-0.6744 -2.2447,-2.0276zm4.3 19.0381l-4.1244 0 0 -15.1261 4.1244 0 0 15.1261zm18.2946 0l-4.1245 0 0 -8.8355c0,-1.09 -0.194,-1.9121 -0.5819,-2.4571 -0.388,-0.545 -1.0069,-0.8175 -1.8567,-0.8175 -1.1547,0 -1.9861,0.3833 -2.5034,1.1546 -0.5126,0.7713 -0.7713,2.0507 -0.7713,3.8381l0 7.1174 -4.1244 0 0 -15.1261 3.1499 0 0.5542 1.9352 0.231 0c0.4618,-0.7344 1.0946,-1.284 1.9028,-1.6581 0.8083,-0.3741 1.7228,-0.5635 2.7528,-0.5635 1.7597,0 3.0945,0.4757 4.0044,1.4272 0.9145,0.9514 1.3671,2.3278 1.3671,4.1198l0 9.8655zm8.212 -8.2258l1.8013 -2.3001 4.2353 -4.6002 4.6556 0 -6.0089 6.5585 6.3738 8.5676 -4.7665 0 -4.3554 -6.129 -1.7736 1.418 0 4.711 -4.1244 0 0 -21.0565 4.1244 0 0 9.3944 -0.2171 3.4363 0.0555 0z"/>
   </g>
  </g>
 </g>
</svg>
